<svg xmlns="http://www.w3.org/2000/svg" xmlns:xlink="http://www.w3.org/1999/xlink" viewBox="0 0 58.12 58.13"><defs><style>.cls-1{fill:none;}.cls-2{clip-path:url(#clip-path);}.cls-3{fill:#7c98ff;opacity:0.36;}.cls-4{fill:#4849be;}</style><clipPath id="clip-path" transform="translate(-121.11 -27.99)"><path class="cls-1" d="M172.58,10.17v86a10.16,10.16,0,0,1-10.16,10.17H10.16A10.16,10.16,0,0,1,0,96.19v-86A10.16,10.16,0,0,1,10.16,0H162.42A10.16,10.16,0,0,1,172.58,10.17Z"/></clipPath></defs><title>Asset 29xxxhdpi</title><g id="Layer_2" data-name="Layer 2"><g id="OBJECTS"><g class="cls-2"><circle class="cls-3" cx="29.06" cy="29.06" r="29.06"/><path class="cls-4" d="M161.23,62.31a6.38,6.38,0,0,1-2.31,5.14,11.54,11.54,0,0,1-6.49,2.33v4.13h-2.76v-4a22.57,22.57,0,0,1-8.62-1.73V62.81a26.36,26.36,0,0,0,8.62,2.32V58.88l-1.35-.52a15.09,15.09,0,0,1-5.65-3.42A6.53,6.53,0,0,1,141,50.38a5.94,5.94,0,0,1,2.28-4.8,11.62,11.62,0,0,1,6.38-2.29V40.2h2.76v3a22.81,22.81,0,0,1,8.34,1.85l-1.89,4.71a22.22,22.22,0,0,0-6.45-1.57v5.95A30.41,30.41,0,0,1,158,56.77a7.73,7.73,0,0,1,2.44,2.43A6,6,0,0,1,161.23,62.31ZM147.07,50.38a1.94,1.94,0,0,0,.61,1.46,7.85,7.85,0,0,0,2,1.18V48.28C147.94,48.54,147.07,49.24,147.07,50.38Zm8.1,12.23a1.8,1.8,0,0,0-.69-1.43,9,9,0,0,0-2-1.21v5C154.26,64.68,155.17,63.88,155.17,62.61Z" transform="translate(-121.11 -27.99)"/></g></g></g></svg>