<svg xmlns="http://www.w3.org/2000/svg" viewBox="0 0 24.07 24.07"><defs><style>.cls-1{fill:#4849be;}.cls-2{fill:#fff;}</style></defs><title>Asset 17xxxhdpi</title><g id="Layer_2" data-name="Layer 2"><g id="OBJECTS"><rect class="cls-1" width="24.07" height="24.07" rx="5.66"/><rect class="cls-2" x="6.94" y="15.75" width="10.19" height="1.69"/><circle class="cls-2" cx="12.03" cy="10.39" r="3.75"/><path class="cls-1" d="M13.46,11.06a.83.83,0,0,1-.3.67,1.61,1.61,0,0,1-.84.3v.53H12V12a2.92,2.92,0,0,1-1.11-.23v-.68a3.65,3.65,0,0,0,.54.2,3.43,3.43,0,0,0,.57.1v-.81l-.18-.07a1.82,1.82,0,0,1-.72-.44.79.79,0,0,1-.22-.58.75.75,0,0,1,.3-.62,1.46,1.46,0,0,1,.82-.3v-.4h.35V8.6a3.06,3.06,0,0,1,1.08.24l-.24.61a3,3,0,0,0-.84-.21V10a4,4,0,0,1,.73.34,1,1,0,0,1,.31.31A.77.77,0,0,1,13.46,11.06ZM11.63,9.53a.25.25,0,0,0,.08.18,1.33,1.33,0,0,0,.26.16V9.26C11.75,9.29,11.63,9.38,11.63,9.53Zm1,1.57a.23.23,0,0,0-.09-.18,1.47,1.47,0,0,0-.27-.16v.65C12.56,11.37,12.68,11.27,12.68,11.1Z"/></g></g></svg>