<svg xmlns="http://www.w3.org/2000/svg" viewBox="0 0 24.07 24.07"><defs><style>.cls-1{fill:#4849be;}.cls-2{fill:#fff;}</style></defs><title>Asset 19xxxhdpi</title><g id="Layer_2" data-name="Layer 2"><g id="OBJECTS"><rect class="cls-1" width="24.07" height="24.07" rx="5.66"/><path class="cls-2" d="M4,11.68a3.75,3.75,0,1,1,3.74,3.75A3.74,3.74,0,0,1,4,11.68Z"/><path class="cls-1" d="M9.21,12.36a.83.83,0,0,1-.3.66,1.45,1.45,0,0,1-.83.3v.53H7.72v-.52a2.93,2.93,0,0,1-1.11-.22v-.69a2.79,2.79,0,0,0,.54.2,2.63,2.63,0,0,0,.57.1v-.8l-.17-.07a1.91,1.91,0,0,1-.73-.44.83.83,0,0,1-.22-.59.76.76,0,0,1,.3-.62,1.45,1.45,0,0,1,.82-.29v-.4h.36v.38a3,3,0,0,1,1.07.24l-.24.61a2.72,2.72,0,0,0-.83-.2v.77a5.26,5.26,0,0,1,.72.33,1,1,0,0,1,.31.32A.74.74,0,0,1,9.21,12.36ZM7.38,10.82a.26.26,0,0,0,.08.19,1,1,0,0,0,.26.15v-.61C7.5,10.58,7.38,10.67,7.38,10.82Zm1,1.58a.23.23,0,0,0-.09-.19,1.19,1.19,0,0,0-.26-.15v.64C8.31,12.66,8.43,12.56,8.43,12.4Z"/><circle class="cls-2" cx="16.28" cy="11.68" r="3.75"/><path class="cls-1" d="M17.71,12.36a.83.83,0,0,1-.3.66,1.45,1.45,0,0,1-.84.3v.53h-.35v-.52a2.89,2.89,0,0,1-1.11-.22v-.69a2.79,2.79,0,0,0,.54.2,2.63,2.63,0,0,0,.57.1v-.8L16,11.85a2.09,2.09,0,0,1-.73-.44.87.87,0,0,1-.21-.59.76.76,0,0,1,.3-.62,1.45,1.45,0,0,1,.82-.29v-.4h.35v.38a3.06,3.06,0,0,1,1.08.24l-.25.61a2.65,2.65,0,0,0-.83-.2v.77a4.3,4.3,0,0,1,.72.33,1,1,0,0,1,.32.32A.74.74,0,0,1,17.71,12.36Zm-1.83-1.54A.26.26,0,0,0,16,11a.85.85,0,0,0,.26.15v-.61C16,10.58,15.88,10.67,15.88,10.82Zm1,1.58a.23.23,0,0,0-.09-.19,1.08,1.08,0,0,0-.27-.15v.64Q16.93,12.64,16.93,12.4Z"/></g></g></svg>