<svg xmlns="http://www.w3.org/2000/svg" viewBox="0 0 9.75 11.56"><defs><style>.cls-1{fill:#fff;}.cls-2{fill:#ff3163;stroke:#fff;stroke-miterlimit:10;stroke-width:0.25px;}</style></defs><title>Asset 25xxxhdpi</title><g id="Layer_2" data-name="Layer 2"><g id="OBJECTS"><path class="cls-1" d="M8.56,6.41H8V3.2A3.06,3.06,0,0,0,4.9.13H4.6A3.07,3.07,0,0,0,1.53,3.2V6.41H1.19A1.19,1.19,0,0,0,0,7.6v.11A1.19,1.19,0,0,0,1.19,8.9H8.56A1.19,1.19,0,0,0,9.75,7.71V7.6A1.19,1.19,0,0,0,8.56,6.41Z"/><path class="cls-1" d="M6.75,9.69A1.88,1.88,0,0,1,3,9.69Z"/><circle class="cls-2" cx="2.05" cy="1.48" r="1.35"/></g></g></svg>