<svg xmlns="http://www.w3.org/2000/svg" xmlns:xlink="http://www.w3.org/1999/xlink" viewBox="0 0 174.22 139.85"><defs><style>.cls-1,.cls-4,.cls-6{fill:none;}.cls-2{clip-path:url(#clip-path);}.cls-3{fill:#7c98ff;}.cls-4{stroke:#fff;}.cls-4,.cls-6{stroke-linecap:round;stroke-linejoin:round;}.cls-5{fill:#fff;}.cls-6{stroke:#7c98ff;}</style><clipPath id="clip-path" transform="translate(-3.9 -101.49)"><path class="cls-1" d="M172.58,10.17V222.92a10.16,10.16,0,0,1-10.16,10.17H10.16A10.16,10.16,0,0,1,0,222.92V10.17A10.16,10.16,0,0,1,10.16,0H162.42A10.16,10.16,0,0,1,172.58,10.17Z"/></clipPath></defs><title>Asset 10xxxhdpi</title><g id="Layer_2" data-name="Layer 2"><g id="OBJECTS"><g class="cls-2"><path class="cls-3" d="M21.42,232.35c8.8,6.08,24.1,7.68,32.52.26,8.22-7.25,10.23-18.84,6-29-2.16-5.17-5.24-9.84-10.07-12.64-5.43-3.15-11.57-5.54-15.59-10.59-4.29-5.39-5-12.86-8.67-18.65a20.53,20.53,0,0,0-12.17-8.7c-3-.74-6.72-.53-8.48,2-1.08,1.57-1.12,3.62-1,5.52a62.58,62.58,0,0,0,3.15,16.82c1.61,4.81,3.83,9.49,4.34,14.54.67,6.5-1.56,13-1.35,19.52A26.8,26.8,0,0,0,21.42,232.35Z" transform="translate(-3.9 -101.49)"/><path class="cls-4" d="M9.49,158.43a152.61,152.61,0,0,1,21,32.55c6.61,13.54,12.64,28.92,15.22,44.86" transform="translate(-3.9 -101.49)"/><path class="cls-4" d="M23.61,165.44a60.75,60.75,0,0,0,.73,13.4,58.24,58.24,0,0,0-13.86-8.26" transform="translate(-3.9 -101.49)"/><path class="cls-4" d="M34.7,185.63a76.66,76.66,0,0,1,.09,13.55,98.92,98.92,0,0,1-15.52-10" transform="translate(-3.9 -101.49)"/><path class="cls-4" d="M50.32,196.88q-3.23,14.43-6.44,28.85-11.4-8.65-23.6-16.17" transform="translate(-3.9 -101.49)"/><path class="cls-3" d="M171.07,231.81c-7.3,7.83-21.91,12.65-31.71,7.21-9.58-5.32-14-16.22-12.06-27,1-5.51,3-10.74,7.13-14.5,4.64-4.24,10.13-7.88,13-13.68,3-6.18,2.08-13.62,4.48-20.07a20.41,20.41,0,0,1,10-11.1c2.77-1.37,6.45-1.95,8.71.16,1.39,1.3,1.86,3.29,2.18,5.17a62,62,0,0,1,.52,17.1c-.54,5-1.7,10.09-1.13,15.13.74,6.5,4.3,12.36,5.5,18.79A26.81,26.81,0,0,1,171.07,231.81Z" transform="translate(-3.9 -101.49)"/><path class="cls-4" d="M166.92,157.05a152.41,152.41,0,0,0-13.58,36.29c-3.56,14.64-6.16,31-5.27,47.08" transform="translate(-3.9 -101.49)"/><path class="cls-4" d="M154.62,166.91a60.79,60.79,0,0,1,2.16,13.25,58.38,58.38,0,0,1,11.77-11" transform="translate(-3.9 -101.49)"/><path class="cls-4" d="M148.1,189a76.89,76.89,0,0,0,2.82,13.26,100.64,100.64,0,0,0,13-13.09" transform="translate(-3.9 -101.49)"/><path class="cls-4" d="M135.25,203.34q6.24,13.4,12.46,26.8,9.28-10.87,19.6-20.84" transform="translate(-3.9 -101.49)"/></g><path class="cls-5" d="M155.35,187c-8.2,7.86-24,12.12-34,5.77-9.84-6.2-13.91-18-11.19-29.33,1.39-5.77,3.83-11.2,8.41-14.95,5.17-4.21,11.2-7.75,14.56-13.74,3.58-6.36,3-14.31,5.93-21a21.74,21.74,0,0,1,11.29-11.18c3-1.29,6.95-1.69,9.22.68,1.4,1.47,1.78,3.61,2,5.62a66.09,66.09,0,0,1-.45,18.15c-.88,5.32-2.41,10.6-2.09,16,.4,6.92,3.83,13.35,4.72,20.23A28.46,28.46,0,0,1,155.35,187Z" transform="translate(-3.9 -101.49)"/><path class="cls-6" d="M155.35,107.46a161.92,161.92,0,0,0-16.53,37.67c-4.63,15.31-8.36,32.45-8.36,49.59" transform="translate(-3.9 -101.49)"/><path class="cls-6" d="M141.74,117.19a64.91,64.91,0,0,1,1.5,14.17,62.09,62.09,0,0,1,13.13-11" transform="translate(-3.9 -101.49)"/><path class="cls-6" d="M133.52,140.23a80.3,80.3,0,0,0,2.21,14.22,107.16,107.16,0,0,0,14.57-13.1" transform="translate(-3.9 -101.49)"/><path class="cls-6" d="M119.06,154.66q5.81,14.58,11.62,29.15,10.5-11,22-20.94" transform="translate(-3.9 -101.49)"/><g class="cls-2"><path class="cls-3" d="M171.07,231.81c-7.3,7.83-21.91,12.65-31.71,7.21-9.58-5.32-14-16.22-12.06-27,1-5.51,3-10.74,7.13-14.5,4.64-4.24,10.13-7.88,13-13.68,3-6.18,2.08-13.62,4.48-20.07a20.41,20.41,0,0,1,10-11.1c2.77-1.37,6.45-1.95,8.71.16,1.39,1.3,1.86,3.29,2.18,5.17a62,62,0,0,1,.52,17.1c-.54,5-1.7,10.09-1.13,15.13.74,6.5,4.3,12.36,5.5,18.79A26.81,26.81,0,0,1,171.07,231.81Z" transform="translate(-3.9 -101.49)"/><path class="cls-4" d="M166.92,157.05a152.41,152.41,0,0,0-13.58,36.29c-3.56,14.64-6.16,31-5.27,47.08" transform="translate(-3.9 -101.49)"/><path class="cls-4" d="M154.62,166.91a60.79,60.79,0,0,1,2.16,13.25,58.38,58.38,0,0,1,11.77-11" transform="translate(-3.9 -101.49)"/><path class="cls-4" d="M148.1,189a76.89,76.89,0,0,0,2.82,13.26,100.64,100.64,0,0,0,13-13.09" transform="translate(-3.9 -101.49)"/><path class="cls-4" d="M135.25,203.34q6.24,13.4,12.46,26.8,9.28-10.87,19.6-20.84" transform="translate(-3.9 -101.49)"/></g></g></g></svg>