<svg xmlns="http://www.w3.org/2000/svg" viewBox="0 0 172.58 339.11"><defs><style>.cls-1{fill:#fff;}.cls-2{fill:#4849be;}</style></defs><title>bg transaksixxxhdpi</title><g id="Layer_2" data-name="Layer 2"><g id="OBJECTS"><path class="cls-1" d="M162.42,0a10.16,10.16,0,0,1,10.16,10.17V328.94a10.16,10.16,0,0,1-10.16,10.17H10.16A10.16,10.16,0,0,1,0,328.94V10.17A10.16,10.16,0,0,1,10.16,0Z"/><path class="cls-2" d="M172.58,10.27V30a10.16,10.16,0,0,1-10.16,10.17H10.16A10.16,10.16,0,0,1,0,30V10.27A10.16,10.16,0,0,1,10.16.1H162.42A10.16,10.16,0,0,1,172.58,10.27Z"/></g></g></svg>